<svg id="Layer_1" data-name="Layer 1" xmlns="http://www.w3.org/2000/svg" viewBox="0 0 754.39 445.95"><defs><style>.cls-1{fill:#0903FF;}.cls-2{fill:#fff;}</style></defs><title>bos</title><path class="cls-1" d="M326,32.86H346.2v11.9h84.2V32.86h20.11a108.37,108.37,0,0,1,13.43,11.9h55.27V26.59H257.39V44.76h55.19A109.1,109.1,0,0,1,326,32.86Z" transform="translate(-23.07 -26.59)"/><path class="cls-1" d="M519.21,51.9H470.28a142.4,142.4,0,0,1,17.58,27.63h31.35Z" transform="translate(-23.07 -26.59)"/><path class="cls-1" d="M491.14,86.67a171.87,171.87,0,0,1,9.2,27.63h18.87V86.67Z" transform="translate(-23.07 -26.59)"/><path class="cls-1" d="M505.38,149.06h13.83V121.44H501.92A192.3,192.3,0,0,1,505.38,149.06Z" transform="translate(-23.07 -26.59)"/><path class="cls-1" d="M306.25,51.9H257.39V79.53h31.27A142,142,0,0,1,306.25,51.9Z" transform="translate(-23.07 -26.59)"/><path class="cls-1" d="M285.38,86.67h-28V114.3h18.79A172.86,172.86,0,0,1,285.38,86.67Z" transform="translate(-23.07 -26.59)"/><path class="cls-1" d="M274.6,121.44H257.39v27.62h13.75A192.3,192.3,0,0,1,274.6,121.44Z" transform="translate(-23.07 -26.59)"/><rect class="cls-1" x="323.13" y="199.15" width="84.2" height="27.63"/><rect class="cls-1" x="323.13" y="164.39" width="84.2" height="27.63"/><rect class="cls-1" x="323.13" y="25.31" width="84.2" height="27.63"/><rect class="cls-1" x="323.13" y="94.85" width="84.2" height="27.63"/><rect class="cls-1" x="323.13" y="60.08" width="84.2" height="27.63"/><rect class="cls-1" x="323.13" y="129.62" width="84.2" height="27.63"/><rect class="cls-1" x="323.13" y="233.92" width="84.2" height="27.63"/><polygon class="cls-1" points="323.13 280.89 286.54 280.89 286.54 289.19 323.13 289.19 407.33 289.19 443.93 289.19 443.93 280.89 407.33 280.89 407.33 268.69 323.13 268.69 323.13 280.89"/><path class="cls-1" d="M559.28,44.76H641.4v-14h35.39A13.46,13.46,0,0,1,690.22,44.2v.56H742.3c-21.13-13.52-47.47-18.17-57.76-18.17H531.91v4.78h27.37Z" transform="translate(-23.07 -26.59)"/><path class="cls-1" d="M690.22,79.53h79.89c-3.21-11.3-9.88-20.39-18.21-27.63H690.22Z" transform="translate(-23.07 -26.59)"/><rect class="cls-1" x="536.21" y="25.31" width="82.12" height="27.63"/><rect class="cls-1" x="536.21" y="60.08" width="82.12" height="27.63"/><rect class="cls-1" x="536.21" y="164.39" width="82.12" height="27.63"/><path class="cls-1" d="M772.19,95.7a58.58,58.58,0,0,0-.58-9H690.22V114.3h79.1A64,64,0,0,0,772.19,95.7Z" transform="translate(-23.07 -26.59)"/><rect class="cls-1" x="536.21" y="94.85" width="82.12" height="27.63"/><rect class="cls-1" x="536.21" y="233.92" width="82.12" height="27.63"/><path class="cls-1" d="M691.68,288.14h60c9.2-7.74,16.82-17,21.34-27.63h-81.3Z" transform="translate(-23.07 -26.59)"/><path class="cls-1" d="M691.68,296.58A13.67,13.67,0,0,1,677.85,310H641.4V295.28H559.28v14.28H531.91v6.22H681.26c16.74,0,40.92-7.2,60.85-20.5H691.68Z" transform="translate(-23.07 -26.59)"/><path class="cls-1" d="M691.68,253.37h83.79a54.84,54.84,0,0,0,2-14.62,59.79,59.79,0,0,0-1.39-13H691.68Z" transform="translate(-23.07 -26.59)"/><path class="cls-1" d="M691.68,218.6H774C769.7,207,761.84,197.93,752.64,191h-61Z" transform="translate(-23.07 -26.59)"/><path class="cls-1" d="M676.79,161.5H641.4v-5.29H559.28v27.62H641.4V170.45h36.45a13.66,13.66,0,0,1,13.82,13.38h49.91c-20.18-11.12-42.29-14.54-47.23-15-9.52-.89-10.41-7.44.9-8.33a129,129,0,0,0,24.24-4.29h-32A13.44,13.44,0,0,1,676.79,161.5Z" transform="translate(-23.07 -26.59)"/><rect class="cls-1" x="536.21" y="199.15" width="82.12" height="27.63"/><path class="cls-1" d="M766.49,121.44H690.22v26.64c0,.33,0,.66-.05,1h47.9C749.43,143.28,760.19,134.56,766.49,121.44Z" transform="translate(-23.07 -26.59)"/><path class="cls-1" d="M164.46,270.58a46.32,46.32,0,0,1-3.09,17.56h63c7.28-7,12.41-14.95,13.24-23.21.15-1.48.27-2.95.35-4.42H163A37.88,37.88,0,0,1,164.46,270.58Z" transform="translate(-23.07 -26.59)"/><path class="cls-1" d="M117.45,106.05a227.94,227.94,0,0,1-15.94-19.38H23.07c.48,9.25,4,18.33,10.2,27.63h91.92C122.28,111.29,119.67,108.51,117.45,106.05Z" transform="translate(-23.07 -26.59)"/><path class="cls-1" d="M160.45,253.37h77.66a68.26,68.26,0,0,0-6.54-27.63H141.86C149.27,234.29,156.25,243.76,160.45,253.37Z" transform="translate(-23.07 -26.59)"/><path class="cls-1" d="M100.24,183.83h96.32c-8.64-8.41-18.61-18-28.68-27.62H71.78C81.12,165.37,91.08,175,100.24,183.83Z" transform="translate(-23.07 -26.59)"/><path class="cls-1" d="M132.63,307.48c-13.83,1.32-32.13-2.4-48.44-12.2H24.63v18.15H33s6.25-5.36,18.44-10.12,16.67-7.74,23.51-5.06S93.36,311.07,113,313.43s49.39,3.27,71.71-3a102.69,102.69,0,0,0,31.09-15.17H157.27C152,302.08,143.91,306.39,132.63,307.48Z" transform="translate(-23.07 -26.59)"/><path class="cls-1" d="M46.05,130.15c5.05,5.4,11.46,11.92,18.51,18.91h95.89c-10.09-9.71-19.93-19.27-28.25-27.62H38.49Q41.93,125.75,46.05,130.15Z" transform="translate(-23.07 -26.59)"/><path class="cls-1" d="M39,225.74H24.63v27.63H48.56A145.43,145.43,0,0,1,39,225.74Z" transform="translate(-23.07 -26.59)"/><path class="cls-1" d="M35,194.71H24.63V218.6H37.51A128.33,128.33,0,0,1,35,194.71Z" transform="translate(-23.07 -26.59)"/><path class="cls-1" d="M59.44,272.37a126.3,126.3,0,0,1-7.29-11.86H24.63v27.63H74.06A78.5,78.5,0,0,1,59.44,272.37Z" transform="translate(-23.07 -26.59)"/><path class="cls-1" d="M128.76,211.67c2.15,2.19,4.39,4.51,6.65,6.93h92.3a93.53,93.53,0,0,0-11.48-15c-3.19-3.44-7.44-7.76-12.4-12.67H107.64C116.47,199.5,124,206.86,128.76,211.67Z" transform="translate(-23.07 -26.59)"/><path class="cls-1" d="M91.06,51.9H36.91A41.5,41.5,0,0,0,28.2,63.51a49.57,49.57,0,0,0-4.88,16H96.87C91.14,69.72,89,61,91.06,51.9Z" transform="translate(-23.07 -26.59)"/><path class="cls-1" d="M129.06,34.94c5.72,1.08,17.14,2.48,29.42,9.82h59.24V29h-8.33s-15.47,13.09-29.75,12.8-33-15.2-66.65-15.2c-23.18,0-49.33,6.52-67,18.17H93.71C101.28,31.69,120.37,33.31,129.06,34.94Z" transform="translate(-23.07 -26.59)"/><path class="cls-1" d="M210.28,136.4h7.44v-15H206C208.88,130.44,210.28,136.4,210.28,136.4Z" transform="translate(-23.07 -26.59)"/><path class="cls-1" d="M192.43,86.67a256.55,256.55,0,0,1,11.26,27.63h14V86.67Z" transform="translate(-23.07 -26.59)"/><path class="cls-1" d="M217.72,51.9H168.26a78.24,78.24,0,0,1,14.35,17c2.21,3.46,4.27,7,6.2,10.67h28.91Z" transform="translate(-23.07 -26.59)"/><rect class="cls-1" y="333.73" width="754.39" height="112.21"/><path class="cls-2" d="M63.3,438.47V394.35H82.81q9,0,13.79,2.71t4.82,7.63a8.23,8.23,0,0,1-2.94,6.25A16.3,16.3,0,0,1,91,414.66v.12a16.38,16.38,0,0,1,9.14,3.48,8.89,8.89,0,0,1,3.42,7,11.06,11.06,0,0,1-5.27,9.62q-5.27,3.56-14.39,3.55Zm12.07-36.8v10.47h5.31a10.11,10.11,0,0,0,5.88-1.5,4.7,4.7,0,0,0,2.15-4.1q0-4.87-8.82-4.87Zm0,17.85v11.63h6.54a11.59,11.59,0,0,0,6.56-1.6,5,5,0,0,0,2.37-4.37A4.7,4.7,0,0,0,88.51,421,11.94,11.94,0,0,0,82,419.52Z" transform="translate(-23.07 -26.59)"/><path class="cls-2" d="M159.49,438.47H146.34l-3.82-9.81H123.47l-3.78,9.81H106.61l19.51-44.12h14.31ZM139.76,421,134,406.2a16.31,16.31,0,0,1-.89-4h-.3a14.37,14.37,0,0,1-.94,3.84L126,421Z" transform="translate(-23.07 -26.59)"/><path class="cls-2" d="M214.39,438.47H202.2l-22.08-27.72a38.92,38.92,0,0,1-2.69-3.66h-.15a61.56,61.56,0,0,1,.3,7.14v24.24h-11.4V394.35h13l21.27,26.86q1.45,1.82,2.69,3.6h.15a38.67,38.67,0,0,1-.3-6.06v-24.4h11.4Z" transform="translate(-23.07 -26.59)"/><path class="cls-2" d="M271.19,438.47H255.94L240.32,419.3a17.49,17.49,0,0,1-1.42-2.43h-.19v21.6H226.64V394.35h12.07v20.86h.19q.45-.85,1.5-2.46l14.79-18.4h14.39l-18.68,21Z" transform="translate(-23.07 -26.59)"/><path class="cls-2" d="M320.07,439.24q-11.52,0-18.76-6.17A20.08,20.08,0,0,1,294.06,417q0-10.47,7.36-16.93t19.51-6.46q11.47,0,18.55,6.19t7.08,16.3q0,10.41-7.34,16.77T320.07,439.24Zm.52-37.07q-6.34,0-10.09,3.92c-2.49,2.61-3.74,6.08-3.74,10.38s1.25,7.83,3.74,10.37a13.08,13.08,0,0,0,9.79,3.82q6.24,0,9.91-3.71t3.66-10.29c0-4.58-1.19-8.13-3.55-10.68S324.7,402.17,320.59,402.17Z" transform="translate(-23.07 -26.59)"/><path class="cls-2" d="M403.66,438.47H391.48L369.4,410.75a37.15,37.15,0,0,1-2.69-3.66h-.15a61.56,61.56,0,0,1,.3,7.14v24.24h-11.4V394.35h13l21.27,26.86c1,1.21,1.86,2.41,2.69,3.6h.15a38.67,38.67,0,0,1-.3-6.06v-24.4h11.39Z" transform="translate(-23.07 -26.59)"/><path class="cls-2" d="M434.57,436.78v-9.85a24.29,24.29,0,0,0,7.06,3.37,27.08,27.08,0,0,0,7.7,1.13,21,21,0,0,0,4-.34,10.74,10.74,0,0,0,2.84-.94,4.53,4.53,0,0,0,1.7-1.42,3.06,3.06,0,0,0,.56-1.76,3.36,3.36,0,0,0-.9-2.31,9.12,9.12,0,0,0-2.44-1.88,27.7,27.7,0,0,0-3.69-1.66c-1.41-.53-2.95-1.08-4.59-1.63q-6.29-2.16-9.36-5.26A10.89,10.89,0,0,1,436,400.8a13,13,0,0,1,4.57-4.08,22.88,22.88,0,0,1,6.71-2.35,41,41,0,0,1,8.07-.76,58.14,58.14,0,0,1,7.42.42,34,34,0,0,1,6,1.28v9.19a19.28,19.28,0,0,0-2.93-1.35,27.39,27.39,0,0,0-3.27-1,33,33,0,0,0-3.35-.57,29.23,29.23,0,0,0-3.15-.18,20.37,20.37,0,0,0-3.74.32,11,11,0,0,0-2.84.91,5.2,5.2,0,0,0-1.79,1.4,2.86,2.86,0,0,0-.64,1.83,3.06,3.06,0,0,0,.71,2,7.62,7.62,0,0,0,2,1.67,23,23,0,0,0,3.17,1.53c1.25.51,2.66,1,4.23,1.56A52.64,52.64,0,0,1,463,415a20.22,20.22,0,0,1,4.39,2.82,10.85,10.85,0,0,1,2.8,3.58,10.65,10.65,0,0,1,1,4.69,10.82,10.82,0,0,1-1.7,6.2,12.68,12.68,0,0,1-4.62,4.06,22.43,22.43,0,0,1-6.78,2.23,46.5,46.5,0,0,1-8.17.68,55,55,0,0,1-8.39-.61A29.25,29.25,0,0,1,434.57,436.78Z" transform="translate(-23.07 -26.59)"/><path class="cls-2" d="M517.57,402.44H502.28v36h-12.1v-36H475v-8.09h42.6Z" transform="translate(-23.07 -26.59)"/><path class="cls-2" d="M569.74,438.47H555.87l-8.33-11.35c-.63-.86-1.22-1.63-1.8-2.31a14.23,14.23,0,0,0-1.73-1.74,6.9,6.9,0,0,0-1.84-1.1,5.37,5.37,0,0,0-2.07-.39h-3.25v16.89H524.78V394.35h19.13q19.51,0,19.51,12a10.49,10.49,0,0,1-.86,4.26,11.5,11.5,0,0,1-2.43,3.53,15.19,15.19,0,0,1-3.79,2.7,21.92,21.92,0,0,1-5,1.79v.12a8.52,8.52,0,0,1,2.31,1,15.48,15.48,0,0,1,2.17,1.62,23.33,23.33,0,0,1,2,2c.64.71,1.21,1.4,1.74,2.08ZM536.85,401.8v12.27h5.23a9.84,9.84,0,0,0,6.24-1.84,5.68,5.68,0,0,0,2.39-4.65q0-5.77-8.4-5.78Z" transform="translate(-23.07 -26.59)"/><path class="cls-2" d="M597.39,439.24q-11.5,0-18.76-6.17A20.11,20.11,0,0,1,571.38,417q0-10.47,7.36-16.93t19.51-6.46q11.47,0,18.55,6.19t7.08,16.3q0,10.41-7.34,16.77T597.39,439.24Zm.52-37.07q-6.35,0-10.09,3.92c-2.49,2.61-3.73,6.08-3.73,10.38s1.24,7.83,3.73,10.37a13.08,13.08,0,0,0,9.79,3.82q6.24,0,9.91-3.71t3.66-10.29c0-4.58-1.18-8.13-3.55-10.68S602,402.17,597.91,402.17Z" transform="translate(-23.07 -26.59)"/><path class="cls-2" d="M681,438.47H668.8l-22.08-27.72a37.15,37.15,0,0,1-2.69-3.66h-.15a61.56,61.56,0,0,1,.3,7.14v24.24h-11.4V394.35h13l21.27,26.86c1,1.21,1.86,2.41,2.69,3.6h.15a38.67,38.67,0,0,1-.3-6.06v-24.4H681Z" transform="translate(-23.07 -26.59)"/><path class="cls-2" d="M737.23,435.52q-7.86,3.72-19.51,3.72-12.93,0-20.39-5.89t-7.45-16.23A20.74,20.74,0,0,1,698,400.17q8.15-6.56,21.67-6.56a52.74,52.74,0,0,1,15,1.94v9.32a35.07,35.07,0,0,0-15.17-2.95q-7.51,0-12.24,4a13.35,13.35,0,0,0-4.73,10.72q0,6.79,4.25,10.52t11.45,3.72a19.19,19.19,0,0,0,6.88-1v-8.62H714.43v-7.93h22.8Z" transform="translate(-23.07 -26.59)"/></svg>